<mxfile host="app.diagrams.net" modified="2023-12-19T20:37:14.589Z" agent="Mozilla/5.0 (Windows NT 10.0; Win64; x64) AppleWebKit/537.36 (KHTML, like Gecko) Chrome/119.0.0.0 Safari/537.36" etag="PJDW3L6_SXkIwrZ8QOIz" version="22.1.11" type="github">
  <diagram name="Side-1" id="Ihc9DfjEV_byq9RWMX_3">
    <mxGraphModel dx="1434" dy="782" grid="1" gridSize="10" guides="1" tooltips="1" connect="1" arrows="1" fold="1" page="1" pageScale="1" pageWidth="1169" pageHeight="827" math="0" shadow="0">
      <root>
        <mxCell id="0" />
        <mxCell id="1" parent="0" />
        <mxCell id="_AhYNdhhBal5mI2SmO9R-18" value="" style="ellipse;whiteSpace=wrap;html=1;aspect=fixed;" vertex="1" parent="1">
          <mxGeometry x="171" width="826.5" height="826.5" as="geometry" />
        </mxCell>
        <mxCell id="_AhYNdhhBal5mI2SmO9R-15" value="" style="ellipse;whiteSpace=wrap;html=1;aspect=fixed;" vertex="1" parent="1">
          <mxGeometry x="225" y="46.75" width="720" height="720" as="geometry" />
        </mxCell>
        <mxCell id="_AhYNdhhBal5mI2SmO9R-11" value="" style="ellipse;whiteSpace=wrap;html=1;aspect=fixed;" vertex="1" parent="1">
          <mxGeometry x="298" y="119.75" width="574" height="574" as="geometry" />
        </mxCell>
        <mxCell id="_AhYNdhhBal5mI2SmO9R-2" value="" style="ellipse;whiteSpace=wrap;html=1;aspect=fixed;" vertex="1" parent="1">
          <mxGeometry x="414" y="235.75" width="341" height="341" as="geometry" />
        </mxCell>
        <mxCell id="_AhYNdhhBal5mI2SmO9R-1" value="" style="ellipse;whiteSpace=wrap;html=1;aspect=fixed;" vertex="1" parent="1">
          <mxGeometry x="500" y="321.75" width="169" height="169" as="geometry" />
        </mxCell>
        <mxCell id="_AhYNdhhBal5mI2SmO9R-4" value="IAutherRepository" style="text;html=1;align=center;verticalAlign=middle;resizable=0;points=[];autosize=1;strokeColor=none;fillColor=none;" vertex="1" parent="1">
          <mxGeometry x="440" y="302.75" width="120" height="30" as="geometry" />
        </mxCell>
        <mxCell id="_AhYNdhhBal5mI2SmO9R-5" value="ICheepRepository" style="text;html=1;align=center;verticalAlign=middle;resizable=0;points=[];autosize=1;strokeColor=none;fillColor=none;" vertex="1" parent="1">
          <mxGeometry x="440" y="482.75" width="120" height="30" as="geometry" />
        </mxCell>
        <mxCell id="_AhYNdhhBal5mI2SmO9R-6" value="IDbContext" style="text;html=1;align=center;verticalAlign=middle;resizable=0;points=[];autosize=1;strokeColor=none;fillColor=none;" vertex="1" parent="1">
          <mxGeometry x="670" y="375.75" width="80" height="30" as="geometry" />
        </mxCell>
        <mxCell id="_AhYNdhhBal5mI2SmO9R-7" value="DTO&#39;s" style="text;html=1;align=center;verticalAlign=middle;resizable=0;points=[];autosize=1;strokeColor=none;fillColor=none;" vertex="1" parent="1">
          <mxGeometry x="510" y="366.75" width="60" height="30" as="geometry" />
        </mxCell>
        <mxCell id="_AhYNdhhBal5mI2SmO9R-8" value="Author" style="text;html=1;align=center;verticalAlign=middle;resizable=0;points=[];autosize=1;strokeColor=none;fillColor=none;" vertex="1" parent="1">
          <mxGeometry x="520" y="428.25" width="60" height="30" as="geometry" />
        </mxCell>
        <mxCell id="_AhYNdhhBal5mI2SmO9R-9" value="Cheep" style="text;html=1;align=center;verticalAlign=middle;resizable=0;points=[];autosize=1;strokeColor=none;fillColor=none;" vertex="1" parent="1">
          <mxGeometry x="585" y="421.75" width="60" height="30" as="geometry" />
        </mxCell>
        <mxCell id="_AhYNdhhBal5mI2SmO9R-10" value="Author&lt;br&gt;Author&lt;br&gt;Relation" style="text;html=1;align=center;verticalAlign=middle;resizable=0;points=[];autosize=1;strokeColor=none;fillColor=none;" vertex="1" parent="1">
          <mxGeometry x="580" y="345.75" width="70" height="60" as="geometry" />
        </mxCell>
        <mxCell id="_AhYNdhhBal5mI2SmO9R-12" value="IChirpService" style="text;html=1;align=center;verticalAlign=middle;resizable=0;points=[];autosize=1;strokeColor=none;fillColor=none;" vertex="1" parent="1">
          <mxGeometry x="685" y="242.75" width="100" height="30" as="geometry" />
        </mxCell>
        <mxCell id="_AhYNdhhBal5mI2SmO9R-13" value="DbContextFactory" style="text;html=1;align=center;verticalAlign=middle;resizable=0;points=[];autosize=1;strokeColor=none;fillColor=none;" vertex="1" parent="1">
          <mxGeometry x="294" y="398.25" width="120" height="30" as="geometry" />
        </mxCell>
        <mxCell id="_AhYNdhhBal5mI2SmO9R-14" value="DbInitializer" style="text;html=1;align=center;verticalAlign=middle;resizable=0;points=[];autosize=1;strokeColor=none;fillColor=none;" vertex="1" parent="1">
          <mxGeometry x="690" y="552.75" width="90" height="30" as="geometry" />
        </mxCell>
        <mxCell id="_AhYNdhhBal5mI2SmO9R-16" value="Program" style="text;html=1;align=center;verticalAlign=middle;resizable=0;points=[];autosize=1;strokeColor=none;fillColor=none;" vertex="1" parent="1">
          <mxGeometry x="550" y="712.75" width="70" height="30" as="geometry" />
        </mxCell>
        <mxCell id="_AhYNdhhBal5mI2SmO9R-17" value="IHelperService" style="text;html=1;align=center;verticalAlign=middle;resizable=0;points=[];autosize=1;strokeColor=none;fillColor=none;" vertex="1" parent="1">
          <mxGeometry x="535" y="72.75" width="100" height="30" as="geometry" />
        </mxCell>
        <mxCell id="_AhYNdhhBal5mI2SmO9R-19" value="CheepViewModel" style="text;html=1;align=center;verticalAlign=middle;resizable=0;points=[];autosize=1;strokeColor=none;fillColor=none;" vertex="1" parent="1">
          <mxGeometry x="560" y="272.75" width="120" height="30" as="geometry" />
        </mxCell>
        <mxCell id="_AhYNdhhBal5mI2SmO9R-20" value="AutherViewModel" style="text;html=1;align=center;verticalAlign=middle;resizable=0;points=[];autosize=1;strokeColor=none;fillColor=none;" vertex="1" parent="1">
          <mxGeometry x="570" y="502.75" width="120" height="30" as="geometry" />
        </mxCell>
        <mxCell id="_AhYNdhhBal5mI2SmO9R-21" value="CheepListViewModel" style="text;html=1;align=center;verticalAlign=middle;resizable=0;points=[];autosize=1;strokeColor=none;fillColor=none;" vertex="1" parent="1">
          <mxGeometry x="460" y="172.75" width="140" height="30" as="geometry" />
        </mxCell>
        <mxCell id="_AhYNdhhBal5mI2SmO9R-22" value="Public" style="text;html=1;align=center;verticalAlign=middle;resizable=0;points=[];autosize=1;strokeColor=none;fillColor=none;" vertex="1" parent="1">
          <mxGeometry x="755" y="72.75" width="60" height="30" as="geometry" />
        </mxCell>
        <mxCell id="_AhYNdhhBal5mI2SmO9R-23" value="UserTimeline" style="text;html=1;align=center;verticalAlign=middle;resizable=0;points=[];autosize=1;strokeColor=none;fillColor=none;" vertex="1" parent="1">
          <mxGeometry x="550" y="772.75" width="90" height="30" as="geometry" />
        </mxCell>
        <mxCell id="_AhYNdhhBal5mI2SmO9R-24" value="Profile" style="text;html=1;align=center;verticalAlign=middle;resizable=0;points=[];autosize=1;strokeColor=none;fillColor=none;" vertex="1" parent="1">
          <mxGeometry x="294" y="102.75" width="60" height="30" as="geometry" />
        </mxCell>
        <mxCell id="_AhYNdhhBal5mI2SmO9R-25" value="SignIn" style="text;html=1;align=center;verticalAlign=middle;resizable=0;points=[];autosize=1;strokeColor=none;fillColor=none;" vertex="1" parent="1">
          <mxGeometry x="238" y="632.75" width="60" height="30" as="geometry" />
        </mxCell>
      </root>
    </mxGraphModel>
  </diagram>
</mxfile>
